<?xml version="1.0" standalone="no"?>
<!DOCTYPE svg PUBLIC "-//W3C//DTD SVG 20010904//EN"
 "http://www.w3.org/TR/2001/REC-SVG-20010904/DTD/svg10.dtd">
<svg version="1.0" xmlns="http://www.w3.org/2000/svg"
 width="170.000000pt" height="170.000000pt" viewBox="0 0 170.000000 170.000000"
 preserveAspectRatio="xMidYMid meet">

<g transform="translate(0.000000,170.000000) scale(0.100000,-0.100000)"
fill="#000000" stroke="none">
<path d="M1000 1606 c0 -2 30 -14 67 -26 332 -107 543 -395 543 -740 0 -182
-53 -335 -165 -479 -93 -118 -253 -227 -387 -263 -27 -6 -48 -16 -48 -20 0
-10 -3 -11 61 8 30 9 95 37 144 62 73 37 108 64 186 142 86 85 102 107 147
200 28 58 58 137 66 177 20 89 20 256 2 344 -45 212 -192 408 -387 518 -77 43
-229 94 -229 77z"/>
<path d="M370 1141 c0 -5 13 -39 29 -76 l28 -67 22 70 c11 38 21 73 21 76 0 3
-22 6 -50 6 -27 0 -50 -4 -50 -9z"/>
<path d="M476 1070 c-14 -45 -26 -90 -26 -102 0 -11 26 -80 58 -152 l57 -131
7 85 c4 47 17 128 29 180 l21 96 -23 49 c-22 45 -28 50 -61 53 l-37 3 -25 -81z"/>
<path d="M1030 958 l-82 -193 5 -85 c8 -117 9 -120 67 -120 45 0 48 2 63 38 9
20 18 75 20 122 8 148 84 310 181 384 20 15 36 31 36 37 0 5 -45 9 -104 9
l-104 0 -82 -192z"/>
<path d="M1247 1031 c-65 -72 -122 -213 -115 -286 3 -33 11 -17 81 141 42 97
76 179 73 181 -2 2 -19 -14 -39 -36z"/>
<path d="M620 938 c-19 -76 -26 -311 -10 -348 12 -29 15 -30 76 -30 l64 0 0
92 c0 90 -2 97 -52 215 -29 68 -55 123 -58 123 -4 0 -12 -24 -20 -52z"/>
<path d="M893 632 c-13 -32 -23 -61 -23 -65 0 -4 14 -7 30 -7 29 0 30 2 29 43
-1 23 -4 52 -7 65 -6 19 -10 14 -29 -36z"/>
<path d="M776 644 c10 -74 14 -84 34 -84 18 0 18 3 -6 58 -32 71 -34 73 -28
26z"/>
</g>
</svg>
